<svg width="248" height="210" viewBox="0 0 248 210" fill="none" xmlns="http://www.w3.org/2000/svg">
<path d="M91.393 206.958L117.715 180.635C121.063 177.287 126.492 177.287 129.84 180.635L156.163 206.958C159.511 210.306 164.94 210.306 168.288 206.958L244.79 130.456C248.478 126.768 248.478 120.788 244.79 117.1L130.456 2.766C126.768 -0.922 120.788 -0.922 117.1 2.766L2.766 117.1C-0.922 120.788 -0.922 126.768 2.766 130.456L79.268 206.958C82.616 210.306 88.045 210.306 91.393 206.958Z" fill="#00B8B9"/>
<path d="M123.778 153.633C166.403 153.633 203.363 129.384 221.62 93.9299L196.36 68.6699C185.98 98.7809 157.415 120.423 123.778 120.423C90.141 120.423 61.576 98.7819 51.196 68.6699L25.936 93.9299C44.193 129.384 81.153 153.633 123.778 153.633Z" fill="white"/>
<path d="M146.52 209.469L126.967 189.916C125.206 188.155 122.351 188.155 120.59 189.916L101.036 209.469H146.52Z" fill="#00B8B9"/>
</svg>
